<svg xmlns="http://www.w3.org/2000/svg" width="20" height="20" viewBox="0 0 20 20">
    <style>.ico-musician-path{fill:#555;}</style>
    <path class="ico-musician-path" data-name="Icon metro-music" d="M16.371 1.728V13.29a2.635 2.635 0 0 1-2.771 2.467 2.635 2.635 0 0 1-2.78-2.467 2.635 2.635 0 0 1 2.78-2.468 2.946 2.946 0 0 1 1.982.741V5.887L8.121 7.642v7.622a2.635 2.635 0 0 1-2.775 2.468 2.635 2.635 0 0 1-2.775-2.468A2.635 2.635 0 0 1 5.346 12.8a2.946 2.946 0 0 1 1.982.741V3.913z" transform="translate(.229 .272)" />
</svg>
