<svg xmlns="http://www.w3.org/2000/svg" width="24" height="24" viewBox="0 0 24 24">
    <style>.ico-close-2-path{fill:#555555}</style>
    <path class="ico-close-2-path" d="m-287.788 124 4.537-4.537a.856.856 0 0 0 0-1.212.856.856 0 0 0-1.212 0l-4.537 4.537-4.537-4.537a.856.856 0 0 0-1.212 0 .856.856 0 0 0 0 1.212l4.537 4.537-4.537 4.537a.856.856 0 0 0 0 1.212.855.855 0 0 0 .606.251.855.855 0 0 0 .606-.251l4.537-4.537 4.537 4.537a.855.855 0 0 0 .606.251.855.855 0 0 0 .606-.251.856.856 0 0 0 0-1.212z" transform="translate(301 -111.999)" data-name="ic-close #555"/>
</svg>
