<svg xmlns="http://www.w3.org/2000/svg" id="ico_Instagram" width="36" height="36" viewBox="0 0 36 36">
    <defs>
        <style>
            .ico-instagram-path{fill:#fff;fill-rule:evenodd}
        </style>
    </defs>
    <path id="패스_678" d="M18 8.7a31.564 31.564 0 0 0-3.8.1 5.743 5.743 0 0 0-2.2.4 4.188 4.188 0 0 0-1.6 1.1 5.715 5.715 0 0 0-1.1 1.6 6.652 6.652 0 0 0-.4 2.2c0 1-.1 1.3-.1 3.8a31.564 31.564 0 0 0 .1 3.8 5.743 5.743 0 0 0 .4 2.2 4.188 4.188 0 0 0 1.1 1.6 5.715 5.715 0 0 0 1.6 1.1 6.652 6.652 0 0 0 2.2.4c1 0 1.3.1 3.8.1a31.564 31.564 0 0 0 3.8-.1 5.743 5.743 0 0 0 2.2-.4 4.188 4.188 0 0 0 1.6-1.1 5.715 5.715 0 0 0 1.1-1.6 6.652 6.652 0 0 0 .4-2.2c0-1 .1-1.3.1-3.8a31.564 31.564 0 0 0-.1-3.8 5.743 5.743 0 0 0-.4-2.2 4.188 4.188 0 0 0-1.1-1.6A5.715 5.715 0 0 0 24 9.2a6.652 6.652 0 0 0-2.2-.4c-1 0-1.3-.1-3.8-.1m0 1.7a28.587 28.587 0 0 1 3.7.1 4.638 4.638 0 0 1 1.7.3 6.726 6.726 0 0 1 1.1.7 2.979 2.979 0 0 1 .7 1.1 4.638 4.638 0 0 1 .3 1.7c0 1 .1 1.3.1 3.7a28.587 28.587 0 0 1-.1 3.7 4.638 4.638 0 0 1-.3 1.7 6.726 6.726 0 0 1-.7 1.1 2.979 2.979 0 0 1-1.1.7 4.638 4.638 0 0 1-1.7.3c-1 0-1.3.1-3.7.1a29.547 29.547 0 0 1-3.7-.1 4.638 4.638 0 0 1-1.7-.3 6.726 6.726 0 0 1-1.1-.7 2.979 2.979 0 0 1-.7-1.1 4.638 4.638 0 0 1-.3-1.7c0-1-.1-1.3-.1-3.7a28.587 28.587 0 0 1 .1-3.7 4.638 4.638 0 0 1 .3-1.7 6.726 6.726 0 0 1 .7-1.1 2.979 2.979 0 0 1 1.1-.7 4.638 4.638 0 0 1 1.7-.3 28.587 28.587 0 0 1 3.7-.1" class="ico-instagram-path"/>
    <path id="패스_679" d="M18 21.1a3.1 3.1 0 1 1 3.1-3.1 3.116 3.116 0 0 1-3.1 3.1m0-7.9a4.8 4.8 0 0 0-4.8 4.8 4.8 4.8 0 0 0 9.6 0 4.8 4.8 0 0 0-4.8-4.8m6.1-.1A1.1 1.1 0 1 1 23 12a1 1 0 0 1 1.1 1.1" class="ico-instagram-path"/>
</svg>
