<svg xmlns="http://www.w3.org/2000/svg" width="20" height="20" viewBox="0 0 20 20">
    <style>.ico-copy-path{fill:none;stroke:#333;stroke-linecap:round;stroke-linejoin:round;stroke-width:1.5px}</style>
    <path class="ico-copy-path" data-name="패스 1041" d="M15.1 13.5h7.2a1.6 1.6 0 0 1 1.6 1.6v7.2a1.6 1.6 0 0 1-1.6 1.6h-7.2a1.6 1.6 0 0 1-1.6-1.6v-7.2a1.6 1.6 0 0 1 1.6-1.6z" transform="translate(-5.901 -5.901)" />
    <path class="ico-copy-path" data-name="패스 1042" d="M5.4 13.4h-.8A1.6 1.6 0 0 1 3 11.8V4.6A1.6 1.6 0 0 1 4.6 3h7.2a1.6 1.6 0 0 1 1.6 1.6v.8" transform="translate(-1.002 -1.002)" />
</svg>
