<svg xmlns="http://www.w3.org/2000/svg" width="20.001" height="20" viewBox="0 0 20.001 20">
  <g id="ico_alert_circle" transform="translate(0.501 0.5)">
    <rect id="bound" width="20" height="20" transform="translate(-0.5 -0.5)" fill="rgba(177,32,32,0)"/>
    <g id="패스_711" data-name="패스 711" transform="translate(-2.001 -2)" fill="#fc5155" stroke-linecap="round" stroke-linejoin="round">
      <path d="M 11.50000095367432 20.99999809265137 C 6.261681079864502 20.99999809265137 2.000000953674316 16.73831748962402 2.000000953674316 11.49999809265137 C 2.000000953674316 6.261678218841553 6.261681079864502 1.999998092651367 11.50000095367432 1.999998092651367 C 16.73832130432129 1.999998092651367 21 6.261678218841553 21 11.49999809265137 C 21 16.73831748962402 16.73832130432129 20.99999809265137 11.50000095367432 20.99999809265137 Z" stroke="none"/>
      <path d="M 11.50000095367432 2.499998092651367 C 6.537380218505859 2.499998092651367 2.500001907348633 6.537378311157227 2.500001907348633 11.49999809265137 C 2.500001907348633 16.46261787414551 6.537380218505859 20.49999809265137 11.50000095367432 20.49999809265137 C 16.46261978149414 20.49999809265137 20.5 16.46261787414551 20.5 11.49999809265137 C 20.5 6.537378311157227 16.46261978149414 2.499998092651367 11.50000095367432 2.499998092651367 M 11.50000095367432 1.499998092651367 C 17.02285003662109 1.499998092651367 21.5 5.977157592773438 21.5 11.49999809265137 C 21.5 17.02284812927246 17.02285003662109 21.49999809265137 11.50000095367432 21.49999809265137 C 5.977151870727539 21.49999809265137 1.500001907348633 17.02284812927246 1.500001907348633 11.49999809265137 C 1.500001907348633 5.977148056030273 5.977151870727539 1.499998092651367 11.50000095367432 1.499998092651367 Z" stroke="none" fill="#fc5155"/>
    </g>
    <path id="패스_712" data-name="패스 712" d="M9,6v6" transform="translate(0.502 -1.7)" fill="none" stroke="#fff" stroke-linecap="round" stroke-linejoin="round" stroke-width="3"/>
    <path id="패스_713" data-name="패스 713" d="M9,12H9" transform="translate(0.502 2.794)" fill="none" stroke="#fff" stroke-linecap="round" stroke-linejoin="round" stroke-width="3"/>
  </g>
</svg>
