<svg xmlns="http://www.w3.org/2000/svg" width="36" height="36" viewBox="0 0 36 36">
    <defs>
        <style>
            .ico-spotify-path{fill:#fff}
        </style>
    </defs>
    <g id="ico_spotify" transform="translate(-6.289 -6.289)">
        <path id="패스_979" d="M73.987 152.215a1.018 1.018 0 0 1-1.395.335c-3.835-2.343-8.661-2.873-14.337-1.576a1.015 1.015 0 0 1-.446-1.98c6.22-1.423 11.547-.809 15.843 1.813a1.034 1.034 0 0 1 .335 1.409z" class="ico-spotify-path" transform="translate(-42.208 -120.717)"/>
        <path id="패스_980" d="M71.645 114.889a1.269 1.269 0 0 1-1.743.418 21.458 21.458 0 0 0-16.269-1.9 1.275 1.275 0 0 1-.739-2.441 23.767 23.767 0 0 1 18.319 2.162 1.278 1.278 0 0 1 .432 1.757z" class="ico-spotify-path" transform="translate(-37.876 -87.838)"/>
        <path id="패스_981" d="M65.151 75.691c-5.256-3.124-13.928-3.4-18.947-1.883a1.524 1.524 0 0 1-.892-2.915c5.758-1.743 15.336-1.409 21.387 2.19a1.536 1.536 0 0 1 .5 2.106 1.516 1.516 0 0 1-2.048.502z" class="ico-spotify-path" transform="translate(-31.214 -53.269)"/>
    </g>
</svg>
