<svg xmlns="http://www.w3.org/2000/svg" width="60" height="60" viewBox="0 0 60 60">
    <defs>
        <style>
            .cls-2{fill:#555}
        </style>
    </defs>
    <g id="ic-예상공연일" transform="translate(60 -64)">
        <path id="ic_area" transform="translate(-60 64)" style="fill:none" d="M0 0h60v60H0z"/>
        <g id="그룹_2511" data-name="그룹 2511" transform="translate(-55 69)">
            <path id="패스_1000" data-name="패스 1000" class="cls-2" d="M-11.433 73h-6.755v-3.437A1.563 1.563 0 0 0-19.75 68a1.563 1.563 0 0 0-1.562 1.563V73h-19.375v-3.437A1.563 1.563 0 0 0-42.25 68a1.563 1.563 0 0 0-1.562 1.563V73h-6.755A5.294 5.294 0 0 0-56 78v34.984a5.294 5.294 0 0 0 5.433 5h39.135a5.294 5.294 0 0 0 5.433-5V78a5.294 5.294 0 0 0-5.434-5zm-39.079 3.126h6.7v3.436a1.563 1.563 0 0 0 1.563 1.563 1.563 1.563 0 0 0 1.563-1.562v-3.437h19.375v3.436a1.563 1.563 0 0 0 1.563 1.563 1.563 1.563 0 0 0 1.563-1.562v-3.437h6.755a2.2 2.2 0 0 1 2.308 1.923v5.89h-43.75v-5.89a2.213 2.213 0 0 1 2.361-1.923zm39.023 38.73h-39.078a2.2 2.2 0 0 1-2.308-1.923v-25.87h43.75v25.871a2.215 2.215 0 0 1-2.364 1.922z" transform="translate(56 -68)"/>
            <path id="패스_1001" data-name="패스 1001" class="cls-2" d="M-18.473 86.75h-30.054A1.52 1.52 0 0 0-50 88.313a1.52 1.52 0 0 0 1.473 1.563h30.054A1.52 1.52 0 0 0-17 88.313a1.52 1.52 0 0 0-1.473-1.563z" transform="translate(58.5 -63.313)"/>
            <path id="패스_1002" data-name="패스 1002" class="cls-2" d="M-18.473 93h-30.054A1.52 1.52 0 0 0-50 94.563a1.52 1.52 0 0 0 1.473 1.563h30.054A1.52 1.52 0 0 0-17 94.563 1.52 1.52 0 0 0-18.473 93z" transform="translate(58.5 -61.75)"/>
            <path id="패스_1003" data-name="패스 1003" class="cls-2" d="M-18.473 99.5h-30.054A1.52 1.52 0 0 0-50 101.063a1.52 1.52 0 0 0 1.473 1.563h30.054A1.52 1.52 0 0 0-17 101.063a1.52 1.52 0 0 0-1.473-1.563z" transform="translate(58.5 -60.125)"/>
        </g>
    </g>
</svg>
