<svg xmlns="http://www.w3.org/2000/svg" width="20" height="20" viewBox="0 0 20 20">
    <style>.ico-like-path{fill:#555;stroke:none;}</style>
    <g style="fill:none">
        <path d="M12.382 3.068a3.663 3.663 0 0 0-5 .364l-.528.544-.528-.544a3.663 3.663 0 0 0-5-.364 3.846 3.846 0 0 0-.265 5.569l5.183 5.352a.84.84 0 0 0 1.213 0l5.183-5.352a3.844 3.844 0 0 0-.262-5.569z" style="stroke:none" transform="translate(3.144 1.752)"/>
        <path class="ico-like-path" d="M3.577 3.548c-.526 0-1.012.176-1.402.509a2.49 2.49 0 0 0-.873 1.795c-.033.702.22 1.388.697 1.88l4.856 5.014 4.856-5.014a2.534 2.534 0 0 0 .7-1.88 2.488 2.488 0 0 0-.872-1.794 2.133 2.133 0 0 0-1.403-.51c-.67 0-1.332.287-1.819.79l-1.46 1.505-1.463-1.507a2.552 2.552 0 0 0-1.817-.788m0-1.3A3.85 3.85 0 0 1 6.33 3.432l.527.544.528-.544c1.347-1.39 3.53-1.615 4.998-.364 1.682 1.436 1.77 4.013.263 5.569l-5.183 5.352a.84.84 0 0 1-1.214 0L1.066 8.637C-.44 7.08-.351 4.504 1.33 3.068a3.435 3.435 0 0 1 2.246-.82z" transform="translate(3.144 1.752)"/>
    </g>
</svg>
