<svg xmlns="http://www.w3.org/2000/svg" width="60" height="60" viewBox="0 0 60 60">
    <defs>
        <style>
            .cls-2{fill:#555}
        </style>
    </defs>
    <g id="ic-공연등급전체" transform="translate(112 -68)">
        <path id="ic_area" transform="translate(-112 68)" style="fill:none" d="M0 0h60v60H0z"/>
        <g id="그룹_2513" data-name="그룹 2513" transform="translate(-106.98 73.02)">
            <path id="패스_1006" data-name="패스 1006" class="cls-2" d="M-83 72.016A25.007 25.007 0 0 0-107.984 97 25.007 25.007 0 0 0-83 121.976 25.007 25.007 0 0 0-58.024 97 25.007 25.007 0 0 0-83 72.016zm0 46.835A21.879 21.879 0 0 1-104.859 97 21.879 21.879 0 0 1-83 75.141 21.879 21.879 0 0 1-61.149 97 21.879 21.879 0 0 1-83 118.851z" transform="translate(107.964 -72.016)"/>
            <g id="그룹_2518" data-name="그룹 2518" transform="translate(.959 .537)">
                <path id="패스_1007" data-name="패스 1007" class="cls-2" d="M-94.439 86.207A1.861 1.861 0 0 0-96.2 85h-.179a1.884 1.884 0 0 0-1.781 1.207l-4.828 10.9a1.624 1.624 0 0 0-.178.653 1.4 1.4 0 0 0 1.4 1.426 1.5 1.5 0 0 0 1.4-.951l.969-2.275h6.1l.931 2.176a1.55 1.55 0 0 0 1.466 1.053 1.445 1.445 0 0 0 1.444-1.464 1.478 1.478 0 0 0-.159-.615zm-3.821 7.065 1.92-4.573 1.92 4.573z" transform="translate(109.188 -68.77)"/>
                <path id="패스_1008" data-name="패스 1008" class="cls-2" d="M-82.08 96.286h-5.64V86.61a1.512 1.512 0 0 0-1.523-1.525 1.512 1.512 0 0 0-1.523 1.525v10.923a1.512 1.512 0 0 0 1.523 1.523h7.164a1.375 1.375 0 0 0 1.385-1.385 1.376 1.376 0 0 0-1.386-1.385z" transform="translate(111.712 -68.756)"/>
                <path id="패스_1009" data-name="패스 1009" class="cls-2" d="M-72.814 96.286h-5.639V86.61a1.513 1.513 0 0 0-1.525-1.525A1.512 1.512 0 0 0-81.5 86.61v10.923a1.512 1.512 0 0 0 1.523 1.523h7.164a1.375 1.375 0 0 0 1.385-1.385 1.376 1.376 0 0 0-1.386-1.385z" transform="translate(113.699 -68.756)"/>
            </g>
        </g>
    </g>
</svg>
