<svg xmlns="http://www.w3.org/2000/svg" width="60" height="60" viewBox="0 0 60 60">
    <path data-name="패스 838" d="M48.124 39.447a6.313 6.313 0 0 0 1.03-3.745 1.466 1.466 0 0 0 .011-.181V5.6l-.017-.122a1.72 1.72 0 0 0-1.724-1.586 1.416 1.416 0 0 0-.412.075l-23.57 8.242-.1.043a1.738 1.738 0 0 0-.976 1.5l-.087 24.212a5.781 5.781 0 0 0-2.581-.621 6.528 6.528 0 0 0-3.864 1.344 6.517 6.517 0 0 0-3.862-1.344 6.006 6.006 0 0 0-5.191 3.14 6.338 6.338 0 0 0 .23 6.6c1.43 2.234 3.691 3.891 7.91 6.548a1.721 1.721 0 0 0 1.83 0c4.219-2.657 6.479-4.314 7.91-6.548a6.411 6.411 0 0 0 1.039-3.815V25.009L45.748 17.9v12.434a5.762 5.762 0 0 0-2.585-.624 6.525 6.525 0 0 0-3.863 1.343 6.531 6.531 0 0 0-3.864-1.343 6 6 0 0 0-5.19 3.142 6.342 6.342 0 0 0 .23 6.6c1.43 2.234 3.689 3.892 7.909 6.55a1.74 1.74 0 0 0 1.831 0c4.221-2.664 6.484-4.323 7.908-6.555zm-25.845 4.282a3.178 3.178 0 0 1-.5 1.533c-1.025 1.6-2.807 2.919-5.939 4.92-3.064-1.959-4.921-3.33-5.936-4.92a3 3 0 0 1-.127-3.132 2.577 2.577 0 0 1 2.2-1.393 3.792 3.792 0 0 1 2.621 1.379 1.769 1.769 0 0 0 2.484 0 3.789 3.789 0 0 1 2.618-1.378 2.579 2.579 0 0 1 2.2 1.393 2.92 2.92 0 0 1 .377 1.287zm22.959-6.1c-1.018 1.593-2.876 2.963-5.939 4.92-3.064-1.958-4.92-3.329-5.938-4.92a3.01 3.01 0 0 1-.125-3.132 2.58 2.58 0 0 1 2.2-1.394 3.794 3.794 0 0 1 2.623 1.381 1.766 1.766 0 0 0 2.483 0 3.786 3.786 0 0 1 2.622-1.384 2.578 2.578 0 0 1 2.2 1.394 3.008 3.008 0 0 1-.126 3.134zm.51-23.328L25.7 21.4v-6.389l20.052-7.1z" transform="translate(1.033 1.082)" style="fill:#555"/>
</svg>
