<svg xmlns="http://www.w3.org/2000/svg" width="28" height="28" viewBox="0 0 28 28">
    <g data-name="Wemuz Twitter">
        <path data-name="패스 1029" d="M28.7 11.3a12.129 12.129 0 0 1-1.4.5 4.738 4.738 0 0 0 1.2-1.9c.1-.2-.2-.4-.3-.3a8.488 8.488 0 0 1-2.2.9h-.1c-.1 0-.3-.1-.4-.1a4.617 4.617 0 0 0-3-1.1 5.9 5.9 0 0 0-1.4.2 4.593 4.593 0 0 0-3 3.2 4.879 4.879 0 0 0-.1 1.7v.1l-.1.1a11.811 11.811 0 0 1-8.2-4.4.3.3 0 0 0-.4 0 4.635 4.635 0 0 0 .7 5.5 3 3 0 0 1-1-.4c-.2-.1-.3 0-.4.2a4.664 4.664 0 0 0 2.6 4.2h-.1a2.2 2.2 0 0 1-.8-.1.265.265 0 0 0-.3.3 4.586 4.586 0 0 0 3.6 3.1 8.632 8.632 0 0 1-4.7 1.4h-.5a.265.265 0 0 0-.3.3c0 .2 0 .3.2.4a12.577 12.577 0 0 0 6.2 1.7 13.22 13.22 0 0 0 5.3-1.1 12.424 12.424 0 0 0 3.9-2.9 14.676 14.676 0 0 0 2.4-4 13.172 13.172 0 0 0 .8-4.4v-.1a.713.713 0 0 1 .3-.6 8.6 8.6 0 0 0 1.8-2c.1-.3-.1-.5-.3-.4z" style="fill:#666" transform="translate(-4 -4)"/>
    </g>
</svg>
