<svg xmlns="http://www.w3.org/2000/svg" width="60" height="60" viewBox="0 0 60 60">
    <path style="fill:none" d="M0 0h60v60H0z"/>
    <path data-name="패스 1019" d="M47.813 20.475V11.5a7.5 7.5 0 0 0-7.5-7.5H17.188a7.5 7.5 0 0 0-7.5 7.5v8.975A6.25 6.25 0 0 0 5 26.5v13.75a6.25 6.25 0 0 0 6.063 6.25 1.451 1.451 0 0 0 .188 0H15v5.6a1.875 1.875 0 0 0 1.875 1.9h6.5a1.871 1.871 0 0 0 1.87-1.875V46.5h7v5.6A1.875 1.875 0 0 0 34.13 54h6.495a1.875 1.875 0 0 0 1.875-1.875V46.5h3.75a1.449 1.449 0 0 0 .225 0 6.25 6.25 0 0 0 6.025-6.25V26.5a6.25 6.25 0 0 0-4.687-6.025zM14.375 40.25a3.125 3.125 0 0 1-6.25 0V26.5a3.125 3.125 0 0 1 6.25 0zm7.755 10.625h-4V46.5h4zm17.245 0H35.38V46.5h3.995zm1.25-7.5H16.612a6.15 6.15 0 0 0 .888-3.125V34H40v6.25a6.15 6.15 0 0 0 .887 3.15zM40 26.5v4.375H17.5V26.5a6.25 6.25 0 0 0-4.687-6.025V11.5a4.375 4.375 0 0 1 4.375-4.375h23.125a4.375 4.375 0 0 1 4.375 4.375v8.975A6.25 6.25 0 0 0 40 26.5zm9.375 13.75a3.125 3.125 0 0 1-6.25 0V26.5a3.125 3.125 0 0 1 6.25 0z" transform="translate(1.25 1)" style="fill:#555"/>
</svg>
