<svg xmlns="http://www.w3.org/2000/svg" width="25" height="25" viewBox="0 0 25 25">
    <g transform="translate(-281 -1221)">
        <circle cx="11.5" cy="11.5" r="11.5" transform="translate(282 1222)" style="fill:#333"/>
        <path data-name="Icon awesome-hashtag" d="m13.413 5.819.218-1.219a.365.365 0 0 0-.36-.429h-2.277l.445-2.493a.365.365 0 0 0-.36-.429H9.843a.365.365 0 0 0-.36.3l-.468 2.623h-3l.445-2.493a.365.365 0 0 0-.36-.429H4.862a.365.365 0 0 0-.36.3l-.468 2.622H1.626a.365.365 0 0 0-.36.3l-.217 1.219a.365.365 0 0 0 .36.429h2.277l-.7 3.9H.583a.365.365 0 0 0-.36.3l-.217 1.215a.365.365 0 0 0 .36.429h2.276L2.2 14.457a.365.365 0 0 0 .36.429h1.234a.365.365 0 0 0 .36-.3l.468-2.621h3l-.445 2.493a.365.365 0 0 0 .36.429h1.238a.365.365 0 0 0 .36-.3l.465-2.623h2.41a.365.365 0 0 0 .36-.3l.217-1.218a.365.365 0 0 0-.36-.429H9.95l.7-3.9h2.408a.365.365 0 0 0 .36-.3zm-5.442 4.2h-3l.7-3.9h3z" transform="translate(286.682 1225.432)" style="fill:#fff"/>
    </g>
</svg>
