<svg xmlns="http://www.w3.org/2000/svg" width="95" height="30" viewBox="0 0 95 30">
    <defs>
        <style>
            .cls-2{fill:#eee}
        </style>
    </defs>
    <g id="tag-svg" transform="translate(-400 -238)">
        <path id="area-tag" fill="#333" d="M0 0H95V30H0z" transform="translate(400 238)"/>
        <g id="text-error" transform="translate(410 244)">
            <path id="E" d="M129.157 193.706h9v2.548h-12.04v-17.6h11.7v2.546h-8.659v4.7h8.34v2.509h-8.34z" class="cls-2" transform="translate(-126.117 -178.495)"/>
            <path id="R" d="M148.037 178.675q5.34 0 5.339 5.5a6.54 6.54 0 0 1-.85 3.524 4.154 4.154 0 0 1-2.549 1.812l4.379 6.768h-3.319l-4.281-6.53h-1.8v6.51h-3.04v-17.584zm-.381 8.56a2.78 2.78 0 0 0 2.011-.667 3.224 3.224 0 0 0 .689-2.358 3.188 3.188 0 0 0-.689-2.349 2.807 2.807 0 0 0-2.011-.657h-2.7v6.032z" class="cls-2" transform="translate(-126.277 -178.495)"/>
            <path id="R-2" d="M163.237 178.675q5.34 0 5.34 5.5a6.549 6.549 0 0 1-.85 3.524 4.153 4.153 0 0 1-2.55 1.812l4.38 6.768h-3.32l-4.28-6.53h-1.8v6.51h-3.04v-17.584zm-.381 8.56a2.78 2.78 0 0 0 2.011-.667 3.219 3.219 0 0 0 .69-2.358 3.184 3.184 0 0 0-.69-2.349 2.807 2.807 0 0 0-2.011-.657h-2.7v6.032z" class="cls-2" transform="translate(-126.43 -178.495)"/>
            <path id="O" d="M185.076 190.98a5.85 5.85 0 0 1-.51 2.579 4.579 4.579 0 0 1-1.39 1.7 5.657 5.657 0 0 1-2.04.947 10.256 10.256 0 0 1-2.48.289 10.367 10.367 0 0 1-2.489-.289 5.655 5.655 0 0 1-2.051-.947 4.577 4.577 0 0 1-1.389-1.7 5.786 5.786 0 0 1-.511-2.559v-7.009a5.783 5.783 0 0 1 .511-2.559 4.588 4.588 0 0 1 1.389-1.7 5.621 5.621 0 0 1 2.051-.946 10.318 10.318 0 0 1 2.489-.289 10.207 10.207 0 0 1 2.48.289 5.623 5.623 0 0 1 2.04.946 4.569 4.569 0 0 1 1.39 1.712 5.864 5.864 0 0 1 .51 2.569zm-9.82-.119a3.948 3.948 0 0 0 .241 1.473 2.344 2.344 0 0 0 .69.966 2.741 2.741 0 0 0 1.079.528 6.145 6.145 0 0 0 2.78 0 2.663 2.663 0 0 0 1.07-.528 2.4 2.4 0 0 0 .68-.966 3.949 3.949 0 0 0 .24-1.473v-6.77a3.945 3.945 0 0 0-.24-1.473 2.392 2.392 0 0 0-.68-.966 2.65 2.65 0 0 0-1.07-.528 6.144 6.144 0 0 0-2.78 0 2.727 2.727 0 0 0-1.079.528 2.338 2.338 0 0 0-.69.966 3.944 3.944 0 0 0-.241 1.473z" class="cls-2" transform="translate(-126.586 -178.495)"/>
            <path id="R-3" d="M195.437 178.675q5.34 0 5.339 5.5a6.54 6.54 0 0 1-.85 3.524 4.153 4.153 0 0 1-2.55 1.812l4.38 6.768h-3.319l-4.281-6.53h-1.8v6.51h-3.04v-17.584zm-.381 8.56a2.777 2.777 0 0 0 2.01-.667 3.219 3.219 0 0 0 .69-2.358 3.184 3.184 0 0 0-.69-2.349 2.8 2.8 0 0 0-2.01-.657h-2.7v6.032z" class="cls-2" transform="translate(-126.756 -178.495)"/>
        </g>
    </g>
</svg>
