<svg width="213" height="48" viewBox="0 0 213 48" fill="none" xmlns="http://www.w3.org/2000/svg">
<path d="M18.2155 25.6412C18.2514 26.5787 18.6536 27.4673 19.3398 28.1251C20.026 28.7829 20.9443 29.1601 21.9067 29.1795C23.0152 29.184 24.1036 28.8916 25.0532 28.3343C25.3114 28.2122 25.5933 28.1451 25.8802 28.1377C26.1899 28.1324 26.4953 28.208 26.7649 28.3566C27.0345 28.5052 27.2583 28.7215 27.4131 28.9829C27.6175 29.3304 27.7285 29.7226 27.7358 30.1231C27.731 30.4827 27.625 30.8342 27.4294 31.1392C27.2338 31.4442 26.9561 31.6911 26.6265 31.8529C25.1411 32.6117 23.4824 32.9904 21.8058 32.9537C20.817 32.9931 19.83 32.8416 18.9015 32.5077C17.9731 32.1738 17.1216 31.6643 16.396 31.0083C15.6705 30.3524 15.0853 29.5631 14.6741 28.6858C14.2628 27.8086 14.0338 26.8607 14 25.8968V22.1423C14.0839 20.2042 14.9525 18.3774 16.4155 17.0621C17.8786 15.7468 19.8168 15.0501 21.8058 15.1247C23.4731 15.0927 25.1225 15.4642 26.6063 16.2058C26.938 16.3523 27.2182 16.5908 27.4119 16.8914C27.6056 17.192 27.7042 17.5415 27.6955 17.8963C27.6927 18.2824 27.5886 18.6614 27.3929 18.9971C27.2525 19.2761 27.0342 19.5108 26.763 19.6742C26.4918 19.8376 26.1788 19.9232 25.86 19.921C25.559 19.9235 25.2617 19.8561 24.9927 19.7244C24.0548 19.1956 22.9902 18.9176 21.9067 18.9185C20.9443 18.9379 20.026 19.3152 19.3398 19.973C18.6536 20.6308 18.2514 21.5194 18.2155 22.4568V25.6412Z" fill="white"/>
<path d="M41.8356 25.8378H35.5828V31.0666C35.5422 31.5602 35.3119 32.0207 34.9379 32.356C34.564 32.6913 34.074 32.8767 33.5658 32.8751C33.3102 32.8911 33.0539 32.8564 32.8124 32.7732C32.571 32.69 32.3493 32.5599 32.1608 32.3909C31.9723 32.2219 31.8209 32.0174 31.7157 31.7898C31.6105 31.5622 31.5538 31.3162 31.5488 31.0666V16.9135C31.5536 16.6647 31.6104 16.4195 31.7158 16.1929C31.8212 15.9663 31.973 15.763 32.1618 15.5955C32.3506 15.4281 32.5726 15.2999 32.814 15.219C33.0554 15.138 33.3113 15.1059 33.5658 15.1247C34.0708 15.1227 34.5581 15.3054 34.9315 15.6366C35.305 15.9678 35.5374 16.4234 35.5828 16.9135V21.8474H41.8356V16.9135C41.8403 16.6647 41.8972 16.4195 42.0026 16.1929C42.108 15.9663 42.2597 15.763 42.4486 15.5955C42.6374 15.4281 42.8593 15.2999 43.1007 15.219C43.3422 15.138 43.598 15.1059 43.8526 15.1247C44.3575 15.1227 44.8448 15.3054 45.2183 15.6366C45.5917 15.9678 45.8241 16.4234 45.8696 16.9135V31.0666C45.8289 31.5602 45.5986 32.0207 45.2247 32.356C44.8507 32.6913 44.3607 32.8767 43.8526 32.8751C43.597 32.8911 43.3407 32.8564 43.0992 32.7732C42.8577 32.69 42.636 32.5599 42.4475 32.3909C42.259 32.2219 42.1076 32.0174 42.0024 31.7898C41.8973 31.5622 41.8405 31.3162 41.8356 31.0666V25.8378Z" fill="white"/>
<path d="M64.8283 26.2113C64.8426 27.1421 64.6572 28.0655 64.284 28.9224C63.9108 29.7793 63.358 30.5508 62.6611 31.1874C61.9642 31.824 61.1386 32.3117 60.2371 32.6192C59.3355 32.9268 58.378 33.0474 57.4259 32.9734C56.4726 33.057 55.512 32.943 54.6072 32.6387C53.7025 32.3344 52.8741 31.8467 52.1767 31.2079C51.4793 30.5691 50.9286 29.7935 50.561 28.9323C50.1933 28.0711 50.017 27.1438 50.0436 26.2113V21.7099C50.0285 20.784 50.2133 19.8654 50.5861 19.0136C50.9589 18.1619 51.5112 17.396 52.2074 16.7658C52.9035 16.1356 53.7278 15.655 54.6269 15.3554C55.5259 15.0557 56.4795 14.9437 57.4259 15.0265C58.3712 14.9531 59.3218 15.0715 60.2178 15.3744C61.1137 15.6772 61.9355 16.1579 62.6311 16.786C63.3268 17.414 63.8812 18.1759 64.2594 19.0234C64.6376 19.8709 64.8313 20.7857 64.8283 21.7099V26.2113ZM57.4259 18.8006C56.994 18.7819 56.5626 18.8491 56.1582 18.998C55.7537 19.147 55.3846 19.3746 55.0733 19.667C54.7619 19.9593 54.5149 20.3104 54.3472 20.6988C54.1795 21.0872 54.0947 21.5047 54.0978 21.9261V26.0344C54.0947 26.4558 54.1795 26.8734 54.3472 27.2617C54.5149 27.6501 54.7619 28.0012 55.0733 28.2936C55.3846 28.586 55.7537 28.8135 56.1582 28.9625C56.5626 29.1114 56.994 29.1786 57.4259 29.1599C57.8591 29.173 58.2905 29.1015 58.6949 28.9496C59.0993 28.7977 59.4684 28.5684 59.7804 28.2753C60.0924 27.9822 60.3411 27.6312 60.5118 27.243C60.6824 26.8547 60.7716 26.4371 60.7741 26.0148V21.9458C60.7716 21.5234 60.6824 21.1058 60.5118 20.7176C60.3411 20.3294 60.0924 19.9783 59.7804 19.6852C59.4684 19.3921 59.0993 19.1629 58.6949 19.0109C58.2905 18.859 57.8591 18.7875 57.4259 18.8006Z" fill="white"/>
<path d="M72.9773 25.6413C73.0131 26.5787 73.4153 27.4673 74.1015 28.1251C74.7877 28.7829 75.7061 29.1602 76.6684 29.1796C77.7769 29.184 78.8653 28.8916 79.8149 28.3343C80.0731 28.2122 80.355 28.1452 80.6419 28.1377C80.9516 28.1324 81.2571 28.208 81.5266 28.3567C81.7962 28.5053 82.02 28.7216 82.1748 28.983C82.3792 29.3305 82.4902 29.7227 82.4975 30.1231C82.4927 30.4828 82.3867 30.8342 82.1911 31.1392C81.9955 31.4443 81.7178 31.6911 81.3882 31.8529C79.9029 32.6117 78.2441 32.9905 76.5675 32.9537C74.5805 33.0336 72.6421 32.3414 71.1785 31.0292C69.7148 29.7171 68.8456 27.8923 68.7617 25.9558V22.1423C68.8457 20.2113 69.7087 18.3906 71.1629 17.0764C72.6172 15.7622 74.545 15.0608 76.5272 15.1247C78.1945 15.0928 79.8439 15.4643 81.3277 16.2059C81.6594 16.3524 81.9396 16.5908 82.1333 16.8914C82.327 17.192 82.4256 17.5415 82.4169 17.8964C82.4141 18.2825 82.31 18.6615 82.1143 18.9972C81.9739 19.2762 81.7555 19.5108 81.4844 19.6743C81.2132 19.8377 80.9002 19.9232 80.5814 19.9211C80.2804 19.9236 79.9831 19.8562 79.7141 19.7245C78.7762 19.1957 77.7116 18.9177 76.628 18.9186C75.6657 18.938 74.7474 19.3152 74.0612 19.973C73.375 20.6308 72.9728 21.5194 72.9369 22.4568L72.9773 25.6413Z" fill="white"/>
<path d="M100.873 26.2113C100.887 27.1421 100.702 28.0655 100.329 28.9224C99.9557 29.7793 99.403 30.5508 98.7061 31.1874C98.0092 31.824 97.1835 32.3117 96.282 32.6192C95.3805 32.9268 94.423 33.0474 93.4708 32.9734C92.5175 33.057 91.5569 32.943 90.6522 32.6387C89.7474 32.3344 88.9191 31.8467 88.2216 31.2079C87.5242 30.5691 86.9735 29.7935 86.6059 28.9323C86.2382 28.0711 86.0619 27.1438 86.0886 26.2113V21.7099C86.0734 20.784 86.2583 19.8654 86.631 19.0136C87.0038 18.1619 87.5562 17.396 88.2523 16.7658C88.9484 16.1356 89.7728 15.655 90.6718 15.3554C91.5708 15.0557 92.5245 14.9437 93.4708 15.0265C94.4161 14.9531 95.3668 15.0715 96.2627 15.3744C97.1587 15.6772 97.9804 16.1579 98.6761 16.786C99.3717 17.414 99.9261 18.1759 100.304 19.0234C100.683 19.8709 100.876 20.7857 100.873 21.7099V26.2113ZM93.4708 18.8006C93.0389 18.7819 92.6075 18.8491 92.2031 18.998C91.7986 19.147 91.4295 19.3746 91.1182 19.667C90.8069 19.9593 90.5598 20.3104 90.3921 20.6988C90.2244 21.0872 90.1396 21.5047 90.1427 21.9261V26.0344C90.1396 26.4558 90.2244 26.8734 90.3921 27.2617C90.5598 27.6501 90.8069 28.0012 91.1182 28.2936C91.4295 28.586 91.7986 28.8135 92.2031 28.9625C92.6075 29.1114 93.0389 29.1786 93.4708 29.1599C93.904 29.173 94.3355 29.1015 94.7398 28.9496C95.1442 28.7977 95.5133 28.5684 95.8253 28.2753C96.1373 27.9822 96.386 27.6312 96.5567 27.243C96.7274 26.8547 96.8166 26.4371 96.819 26.0148V21.9458C96.8166 21.5234 96.7274 21.1058 96.5567 20.7176C96.386 20.3294 96.1373 19.9783 95.8253 19.6852C95.5133 19.3921 95.1442 19.1629 94.7398 19.0109C94.3355 18.859 93.904 18.7875 93.4708 18.8006Z" fill="white"/>
<path d="M122.031 26.4668C121.676 26.4417 121.331 26.3406 121.021 26.1707C120.711 26.0008 120.443 25.7663 120.236 25.4839L117.554 22.4961V31.0666C117.513 31.5602 117.283 32.0207 116.909 32.3559C116.535 32.6912 116.045 32.8766 115.537 32.875C115.281 32.891 115.025 32.8563 114.783 32.7731C114.542 32.6899 114.32 32.5599 114.131 32.3909C113.943 32.2218 113.792 32.0174 113.686 31.7898C113.581 31.5622 113.524 31.3161 113.52 31.0666V16.8938C113.524 16.645 113.581 16.3998 113.687 16.1732C113.792 15.9466 113.944 15.7433 114.133 15.5758C114.321 15.4084 114.543 15.2802 114.785 15.1993C115.026 15.1183 115.282 15.0862 115.537 15.105C115.88 15.1108 116.218 15.1853 116.53 15.324C116.843 15.4626 117.122 15.6624 117.352 15.9109L122.092 21.2773L126.751 15.9109C126.985 15.6628 127.269 15.4634 127.584 15.3249C127.9 15.1864 128.241 15.1116 128.587 15.105C128.842 15.0833 129.099 15.1133 129.342 15.1932C129.584 15.273 129.807 15.401 129.997 15.5691C130.186 15.7371 130.338 15.9415 130.443 16.1695C130.547 16.3975 130.602 16.6441 130.604 16.8938V31.0666C130.563 31.5602 130.333 32.0207 129.959 32.3559C129.585 32.6912 129.095 32.8766 128.587 32.875C128.331 32.891 128.075 32.8563 127.833 32.7731C127.592 32.6899 127.37 32.5599 127.182 32.3909C126.993 32.2218 126.842 32.0174 126.736 31.7898C126.631 31.5622 126.574 31.3161 126.57 31.0666V22.4961L123.907 25.4839C123.689 25.7732 123.407 26.0115 123.083 26.1815C122.758 26.3515 122.399 26.449 122.031 26.4668V26.4668Z" fill="white"/>
<path d="M135.021 17.0905C135.021 16.5691 135.234 16.0691 135.612 15.7005C135.991 15.3319 136.504 15.1248 137.038 15.1248C137.573 15.1248 138.086 15.3319 138.465 15.7005C138.843 16.0691 139.055 16.5691 139.055 17.0905V25.3661C139.02 25.8175 139.079 26.2713 139.231 26.6992C139.382 27.1272 139.623 27.5202 139.937 27.8539C140.251 28.1876 140.632 28.4547 141.056 28.6388C141.48 28.8229 141.939 28.92 142.404 28.924C142.859 28.931 143.311 28.845 143.73 28.6717C144.15 28.4983 144.527 28.2414 144.839 27.9175C145.15 27.5936 145.389 27.2098 145.539 26.7907C145.689 26.3716 145.748 25.9266 145.712 25.4841V17.0905C145.69 16.8271 145.728 16.5623 145.822 16.3144C145.916 16.0665 146.064 15.8414 146.255 15.6546C146.447 15.4677 146.678 15.3236 146.932 15.2322C147.187 15.1407 147.458 15.1041 147.729 15.1248C148.264 15.1248 148.777 15.3319 149.155 15.7005C149.533 16.0691 149.746 16.5691 149.746 17.0905V24.9533C149.746 29.6907 147.003 32.8162 142.343 32.8162C137.684 32.8162 135.021 29.7496 135.021 25.0516V17.0905Z" fill="white"/>
<path d="M153.477 29.848C153.477 29.6136 153.518 29.3811 153.598 29.16C153.721 28.7837 153.967 28.4571 154.298 28.2299C154.63 28.0027 155.028 27.8875 155.433 27.9019C155.833 27.9041 156.227 27.9984 156.583 28.1771C157.788 28.7222 159.107 28.9847 160.435 28.9437C162.553 28.9437 163.098 28.1771 163.098 27.4694C163.098 26.4276 162.392 25.9165 160.435 25.9165C156.401 25.9165 153.739 23.656 153.739 20.4715C153.739 17.5819 155.877 15.1051 160.435 15.1051C162.254 15.0683 164.055 15.4665 165.679 16.2649C166.008 16.4351 166.281 16.6904 166.47 17.0026C166.658 17.3148 166.755 17.6718 166.748 18.034C166.744 18.3392 166.675 18.6402 166.547 18.9186C166.394 19.2422 166.154 19.5192 165.852 19.7201C165.55 19.9209 165.197 20.0379 164.832 20.0587C164.523 20.0538 164.22 19.9799 163.945 19.8425C162.856 19.2905 161.642 19.0134 160.415 19.0365C158.781 19.0365 158.075 19.7442 158.075 20.4912C158.075 21.2381 158.701 21.9851 160.435 21.9851C164.893 21.9851 167.475 24.0884 167.475 27.4498C167.475 30.1035 165.458 32.8751 160.597 32.8751H159.911C158.294 32.8614 156.693 32.5547 155.191 31.9709C154.728 31.8126 154.32 31.5287 154.017 31.1527C153.713 30.7767 153.526 30.3241 153.477 29.848V29.848Z" fill="white"/>
<path d="M172.597 32.6982C172.161 32.5917 171.774 32.3462 171.497 32.0007C171.221 31.6553 171.07 31.2296 171.07 30.7914C171.07 30.3533 171.221 29.9276 171.497 29.5822C171.774 29.2367 172.161 28.9912 172.597 28.8847H174.049V19.0562H172.597C172.161 18.9496 171.774 18.7041 171.497 18.3587C171.221 18.0132 171.07 17.5876 171.07 17.1494C171.07 16.7112 171.221 16.2856 171.497 15.9401C171.774 15.5947 172.161 15.3492 172.597 15.2427H179.778C180.214 15.3492 180.601 15.5947 180.877 15.9401C181.154 16.2856 181.304 16.7112 181.304 17.1494C181.304 17.5876 181.154 18.0132 180.877 18.3587C180.601 18.7041 180.214 18.9496 179.778 19.0562H178.285V28.8847H179.778C180.214 28.9912 180.601 29.2367 180.877 29.5822C181.154 29.9276 181.304 30.3533 181.304 30.7914C181.304 31.2296 181.154 31.6553 180.877 32.0007C180.601 32.3462 180.214 32.5917 179.778 32.6982H172.597Z" fill="white"/>
<path d="M189.479 25.6412C189.515 26.5786 189.917 27.4672 190.603 28.1251C191.29 28.7829 192.208 29.1601 193.17 29.1795C194.279 29.184 195.367 28.8916 196.317 28.3343C196.575 28.2121 196.857 28.1451 197.144 28.1377C197.454 28.1324 197.759 28.208 198.029 28.3566C198.298 28.5052 198.522 28.7215 198.677 28.9829C198.881 29.3304 198.992 29.7226 198.999 30.1231C198.995 30.4827 198.889 30.8342 198.693 31.1392C198.497 31.4442 198.22 31.6911 197.89 31.8529C196.405 32.6117 194.746 32.9904 193.069 32.9537C191.082 33.0336 189.144 32.3414 187.68 31.0292C186.217 29.717 185.348 27.8922 185.264 25.9557V22.1423C185.348 20.2041 186.216 18.3774 187.679 17.0621C189.142 15.7468 191.08 15.0501 193.069 15.1247C194.737 15.0927 196.386 15.4642 197.87 16.2058C198.202 16.3523 198.482 16.5907 198.676 16.8914C198.869 17.192 198.968 17.5415 198.959 17.8963C198.956 18.2824 198.852 18.6614 198.657 18.9971C198.516 19.2761 198.298 19.5108 198.027 19.6742C197.755 19.8376 197.443 19.9232 197.124 19.921C196.823 19.9235 196.525 19.8561 196.256 19.7244C195.318 19.1956 194.254 18.9176 193.17 18.9185C192.208 18.9379 191.29 19.3152 190.603 19.973C189.917 20.6308 189.515 21.5194 189.479 22.4568V25.6412Z" fill="white"/>
</svg>
