<svg data-name="Wemuz Kakao" xmlns="http://www.w3.org/2000/svg" width="36" height="36">
    <path data-name="패스 999" d="M82.95 77.9c-5.11 0-9.25 3.827-9.25 8.552a7.47 7.47 0 0 0 3.463 6.67l.007.007v4.091a.234.234 0 0 0 .378.185l3.506-2.6.078.036A10.138 10.138 0 0 0 82.95 95c5.11 0 9.25-3.827 9.25-8.552S88.06 77.9 82.95 77.9m-3.1 10.725a1.935 1.935 0 0 0 1.917-1.383h1.34a3.212 3.212 0 0 1-3.257 2.672 3.463 3.463 0 1 1 0-6.927 3.209 3.209 0 0 1 3.264 2.722h-1.34a1.894 1.894 0 0 0-1.924-1.459 2.093 2.093 0 0 0-2.174 2.195 2.148 2.148 0 0 0 2.174 2.181m8.837 1.154h-1.226v-2.773a.881.881 0 0 0-.941-.983c-.641 0-1.048.392-1.048 1.183v2.573h-1.225V83h1.226v2.551a1.569 1.569 0 0 1 1.418-.67 1.676 1.676 0 0 1 1.283.52 1.971 1.971 0 0 1 .513 1.447z" transform="translate(-64.699 -69.4)" style="fill:#fff"/>
</svg>
