<svg xmlns="http://www.w3.org/2000/svg" width="188" height="28" viewBox="0 0 188 28">
<style>.logo-wemuz-path{fill: #785ffa;}</style>
  <g id="wemuz_logo" transform="translate(-6 -6)">
    <path class="logo-wemuz-path" id="패스_561" data-name="패스 561" d="M153,6V20a7,7,0,0,1-14,0V6h-7V20a14,14,0,0,0,14,14h0a14,14,0,0,0,14-14V6Z"/>
    <path class="logo-wemuz-path" id="패스_562" data-name="패스 562" d="M192.975,11.975A3.5,3.5,0,0,0,190.5,6H166v7h16.05L167.025,28.025h0a3.488,3.488,0,0,0,2.225,5.95V34H194V27H177.95Z"/>
    <path class="logo-wemuz-path" id="패스_563" data-name="패스 563" d="M119,6.837a11.21,11.21,0,0,0-12,2.272,11.3,11.3,0,0,0-3.5-2.273A11.251,11.251,0,0,0,88,17.25V34h7V17.25h.014a4.243,4.243,0,1,1,8.486,0l-.009,10.417.009,0V34h7V17.25h.014a4.243,4.243,0,1,1,8.486,0l-.009,10.416.009,0V34h7V17.25A11.248,11.248,0,0,0,119,6.837Z"/>
    <g id="E">
      <path class="logo-wemuz-path" id="패스_564" data-name="패스 564" d="M81,9.5A3.5,3.5,0,0,0,77.5,6H51v7H77.5A3.5,3.5,0,0,0,81,9.5Z"/>
      <path class="logo-wemuz-path" id="패스_565" data-name="패스 565" d="M77.5,27H51v7H77.5a3.5,3.5,0,0,0,0-7Z"/>
      <path class="logo-wemuz-path" id="패스_566" data-name="패스 566" d="M77.5,17H51v7H77.5a3.5,3.5,0,0,0,0-7Z"/>
    </g>
    <path class="logo-wemuz-path" id="패스_567" data-name="패스 567" d="M13,33.163a11.21,11.21,0,0,0,12-2.272,11.3,11.3,0,0,0,3.5,2.273A11.251,11.251,0,0,0,44,22.75V6H37V22.75h-.014a4.243,4.243,0,1,1-8.486,0l.009-10.417-.009,0V6h-7V22.75h-.014a4.243,4.243,0,1,1-8.486,0l.009-10.416-.009,0V6H6V22.75A11.248,11.248,0,0,0,13,33.163Z"/>
  </g>
</svg>
