<svg data-name="LOGO-WEMUZ PROJECT" xmlns="http://www.w3.org/2000/svg" width="52" height="24" viewBox="0 0 52 24">
    <path d="M90.02 4.565a.9.9 0 0 0 .26-.644.912.912 0 0 0-.91-.921H83v1.826h4.173L83.26 8.739a.9.9 0 0 0-.26.644.909.909 0 0 0 .845.921h6.435V8.478h-4.16z" transform="translate(-39.84 -1.435)" style="fill:#fff"/>
    <path d="M71.46 3v3.652a1.82 1.82 0 1 1-3.64 0V3H66v3.652a3.646 3.646 0 0 0 3.64 3.648 3.646 3.646 0 0 0 3.64-3.652V3z" transform="translate(-31.68 -1.435)" style="fill:#fff"/>
    <path d="M52.06 3.219a2.91 2.91 0 0 0-3.12.592A2.921 2.921 0 0 0 44 5.935V10.3h1.82V5.935a1.105 1.105 0 1 1 2.207 0V10.3h1.82V5.935a1.105 1.105 0 1 1 2.207 0V10.3h1.82V5.935a2.932 2.932 0 0 0-1.814-2.716z" transform="translate(-21.12 -1.435)" style="fill:#fff"/>
    <path data-name="패스 556" d="M33.3 3.913A.912.912 0 0 0 32.39 3H25.5v1.826h6.89a.912.912 0 0 0 .91-.913z" transform="translate(-12.241 -1.435)" style="fill:#fff"/>
    <path data-name="패스 557" d="M32.39 13.5H25.5v1.826h6.89a.913.913 0 0 0 0-1.826z" transform="translate(-12.241 -6.457)" style="fill:#fff"/>
    <path data-name="패스 558" d="M32.39 8.5H25.5v1.826h6.89a.913.913 0 0 0 0-1.826z" transform="translate(-12.241 -4.167)" style="fill:#fff"/>
    <path d="M4.82 10.085a2.91 2.91 0 0 0 3.12-.592 2.921 2.921 0 0 0 4.94-2.123V3h-1.82v4.37a1.105 1.105 0 1 1-2.207 0V3h-1.82v4.37a1.105 1.105 0 1 1-2.207 0V3H3v4.37a2.932 2.932 0 0 0 1.82 2.716z" transform="translate(-1.44 -1.435)" style="fill:#fff"/>
    <g>
        <path d="M178.55 50.285a.436.436 0 0 1-.44-.431v-3.11h2.21V44.88h-2.2v-2.35h-1.86v7.325a2.273 2.273 0 0 0 2.288 2.3h2.329v-1.87z" transform="translate(-130.437 -31.052)" style="fill:#fff"/>
        <path d="M150.862 56.135a1.789 1.789 0 0 1-.734.569 2.359 2.359 0 0 1-.986.227 1.8 1.8 0 1 1 0-3.6 1.685 1.685 0 0 1 1.541.893l.164.277 1.543-1.045-.156-.261a3.7 3.7 0 0 0-1.3-1.259 3.652 3.652 0 0 0-4.384 5.764 3.534 3.534 0 0 0 2.587 1.076 4.2 4.2 0 0 0 1.84-.439 3.443 3.443 0 0 0 1.416-1.175l.169-.261-1.53-1.045z" transform="translate(-107.71 -37.638)" style="fill:#fff"/>
        <path data-name="패스 733" d="M93.228 55.243a1.745 1.745 0 0 1-.521 1.28 1.707 1.707 0 0 1-1.265.522h-.312v1.867h.307a3.668 3.668 0 0 0 3.644-3.656V51.6h-1.853z" transform="translate(-67.438 -37.754)" style="fill:#fff"/>
        <path data-name="패스 734" d="M99.19 43.977V42.53h1.858v1.447z" transform="translate(-73.4 -31.052)" style="fill:#fff"/>
        <path d="M64.723 52.582a3.664 3.664 0 1 0 1.071 2.589 3.635 3.635 0 0 0-1.071-2.589zM63.4 56.444a1.79 1.79 0 0 1-3.055-1.272 1.753 1.753 0 0 1 .521-1.28 1.8 1.8 0 0 1 3.066 1.28 1.7 1.7 0 0 1-.532 1.272z" transform="translate(-43.285 -37.678)" style="fill:#fff"/>
        <path d="M40.571 52.6a3.555 3.555 0 0 0-1.071 2.6v3.656h1.858V55.2a1.753 1.753 0 0 1 .521-1.28 1.715 1.715 0 0 1 1.267-.522h.3v-1.869h-.3a3.513 3.513 0 0 0-2.575 1.071z" transform="translate(-29.23 -37.7)" style="fill:#fff"/>
        <path d="M9.643 51.858a3.521 3.521 0 0 0-2.571 1.082A3.563 3.563 0 0 0 6 55.527v6.006h1.858V58.7a3.46 3.46 0 0 0 1.785.486 3.528 3.528 0 0 0 2.6-1.073 3.664 3.664 0 0 0 0-5.173 3.528 3.528 0 0 0-2.6-1.082zm1.275 4.942a1.733 1.733 0 0 1-1.275.522 1.794 1.794 0 0 1-1.791-1.8 1.75 1.75 0 0 1 .521-1.28 1.707 1.707 0 0 1 1.27-.52 1.788 1.788 0 0 1 1.8 1.8 1.726 1.726 0 0 1-.518 1.269z" transform="translate(-4.437 -37.944)" style="fill:#fff"/>
        <g data-name="E">
            <path data-name="패스 556" d="M32.78 3.849A.849.849 0 0 0 31.931 3H25.5v1.7h6.431a.849.849 0 0 0 .849-.849z" transform="translate(3.834 11.325)" style="fill:#fff"/>
            <path data-name="패스 557" d="M31.931 13.5H25.5v1.7h6.431a.849.849 0 0 0 0-1.7z" transform="translate(3.834 5.921)" style="fill:#fff"/>
            <path data-name="패스 558" d="M31.931 8.5H25.5v1.7h6.431a.849.849 0 0 0 0-1.7z" transform="translate(3.834 8.4)" style="fill:#fff"/>
        </g>
    </g>
</svg>
