<svg xmlns="http://www.w3.org/2000/svg" width="188" height="28" viewBox="0 0 188 28">
  <g id="wemuz_logo_white" transform="translate(-6 -6)">
    <path id="패스_554" data-name="패스 554" d="M373,6V20a7,7,0,0,1-14,0V6h-7V20a14,14,0,0,0,14,14h0a14,14,0,0,0,14-14V6Z" transform="translate(-220)" fill="#fff"/>
    <path id="패스_555" data-name="패스 555" d="M412.975,11.975A3.5,3.5,0,0,0,410.5,6H386v7h16.05L387.025,28.025h0a3.488,3.488,0,0,0,2.225,5.95V34H414V27H397.95Z" transform="translate(-220)" fill="#fff"/>
    <path id="패스_556" data-name="패스 556" d="M339,6.837a11.21,11.21,0,0,0-12,2.272,11.3,11.3,0,0,0-3.5-2.273A11.251,11.251,0,0,0,308,17.25V34h7V17.25h.014a4.243,4.243,0,1,1,8.486,0l-.009,10.417.009,0V34h7V17.25h.014a4.243,4.243,0,1,1,8.486,0l-.009,10.416.009,0V34h7V17.25A11.248,11.248,0,0,0,339,6.837Z" transform="translate(-220)" fill="#fff"/>
    <g id="E" transform="translate(-220)">
      <path id="패스_557" data-name="패스 557" d="M301,9.5A3.5,3.5,0,0,0,297.5,6H271v7h26.5A3.5,3.5,0,0,0,301,9.5Z" fill="#fff"/>
      <path id="패스_558" data-name="패스 558" d="M297.5,27H271v7h26.5a3.5,3.5,0,0,0,0-7Z" fill="#fff"/>
      <path id="패스_559" data-name="패스 559" d="M297.5,17H271v7h26.5a3.5,3.5,0,0,0,0-7Z" fill="#fff"/>
    </g>
    <path id="패스_560" data-name="패스 560" d="M233,33.163a11.21,11.21,0,0,0,12-2.272,11.3,11.3,0,0,0,3.5,2.273A11.251,11.251,0,0,0,264,22.75V6h-7V22.75h-.014a4.243,4.243,0,1,1-8.486,0l.009-10.417-.009,0V6h-7V22.75h-.014a4.243,4.243,0,1,1-8.486,0l.009-10.416-.009,0V6h-7V22.75A11.248,11.248,0,0,0,233,33.163Z" transform="translate(-220)" fill="#fff"/>
  </g>
</svg>
