<svg xmlns="http://www.w3.org/2000/svg" width="24" height="24" viewBox="0 0 24 24">
    <path data-name="패스 1020" d="M17.809 14a1.648 1.648 0 0 0-1.01.348L13.347 17h-2.789a.58.58 0 0 0-.558.6v4.8a.58.58 0 0 0 .558.6h2.789l3.453 2.652a1.648 1.648 0 0 0 1.01.348.58.58 0 0 0 .558-.6V14.6a.58.58 0 0 0-.559-.6z" transform="translate(-6.4 -8)" style="fill:#333"/>
    <path data-name="패스 1021" d="M30.706 14.525a.525.525 0 0 0-.581.081.629.629 0 0 0-.194.6.584.584 0 0 0 .406.455 4.952 4.952 0 0 1 0 9.1.61.61 0 0 0-.36.667.573.573 0 0 0 .544.5.521.521 0 0 0 .184-.036 6.01 6.01 0 0 0 3.738-5.684 6.01 6.01 0 0 0-3.738-5.684z" transform="translate(-14.025 -8.208)" style="fill:#333"/>
    <path data-name="패스 1022" d="M30.785 21.988a3.707 3.707 0 0 0-2.036-3.452.543.543 0 0 0-.72.374.665.665 0 0 0 .329.818 2.6 2.6 0 0 1 0 4.518.65.65 0 0 0-.359.709.582.582 0 0 0 .554.522.5.5 0 0 0 .2-.038 3.707 3.707 0 0 0 2.036-3.452z" transform="translate(-13.431 -9.988)" style="fill:#333"/>
</svg>
