<svg xmlns="http://www.w3.org/2000/svg" width="24" height="24" viewBox="0 0 24 24">
    <style>.edit-path {fill:#555}</style>
    <g data-name="그룹 2421">
        <path class="edit-path" data-name="패스 989" d="M21.6 16.216a.738.738 0 0 0-1.045 0L10.216 26.559a.737.737 0 0 0-.216.522v4.433a.739.739 0 0 0 .739.739h4.433a.736.736 0 0 0 .522-.216l10.343-10.343a.738.738 0 0 0 0-1.045z" transform="translate(-8.005 -10.27)" />
        <path class="edit-path" data-name="패스 990" d="M34.546 13 32.2 10.657a2.273 2.273 0 0 0-3.124-.007l-1.593 1.544a.738.738 0 0 0-.007 1.052l4.433 4.433a.739.739 0 0 0 1.037.008l1.6-1.552a2.217 2.217 0 0 0 0-3.135z" transform="translate(-13.195 -8.054)" />
    </g>
</svg>
